<?xml version="1.0" encoding="UTF-8" standalone="no"?>
<svg
   xmlns:dc="http://purl.org/dc/elements/1.1/"
   xmlns:cc="http://creativecommons.org/ns#"
   xmlns:rdf="http://www.w3.org/1999/02/22-rdf-syntax-ns#"
   xmlns:svg="http://www.w3.org/2000/svg"
   xmlns="http://www.w3.org/2000/svg"
   xmlns:sodipodi="http://sodipodi.sourceforge.net/DTD/sodipodi-0.dtd"
   xmlns:inkscape="http://www.inkscape.org/namespaces/inkscape"
   version="1.1"
   id="Layer_1"
   x="0px"
   y="0px"
   viewBox="0 0 1000 1000"
   enable-background="new 0 0 1000 1000"
   xml:space="preserve"
   sodipodi:docname="logo-black.svg"
   inkscape:version="0.92.4 (5da689c313, 2019-01-14)"><metadata
   id="metadata41"><rdf:RDF><cc:Work
       rdf:about=""><dc:format>image/svg+xml</dc:format><dc:type
         rdf:resource="http://purl.org/dc/dcmitype/StillImage" /></cc:Work></rdf:RDF></metadata><defs
   id="defs39" /><sodipodi:namedview
   pagecolor="#ffffff"
   bordercolor="#666666"
   borderopacity="1"
   objecttolerance="10"
   gridtolerance="10"
   guidetolerance="10"
   inkscape:pageopacity="0"
   inkscape:pageshadow="2"
   inkscape:window-width="2560"
   inkscape:window-height="1377"
   id="namedview37"
   showgrid="false"
   inkscape:zoom="0.944"
   inkscape:cx="697.37768"
   inkscape:cy="442.0457"
   inkscape:window-x="-8"
   inkscape:window-y="-8"
   inkscape:window-maximized="1"
   inkscape:current-layer="Layer_1" />
	<path
   d="m 118.21796,882.93538 a 16.602558,16.602558 0 0 1 0,-33.20511 v -33.2051 a 49.807663,49.807663 0 1 0 49.80766,49.80766 h -33.20511 a 16.602555,16.602555 0 0 1 -16.60255,16.60255 z"
   id="path2"
   inkscape:connector-curvature="0"
   style="fill:#000000;stroke-width:16.60255432" />
	<path
   d="M 881.93546,750.11494 H 863.49002 A 116.10167,116.10167 0 0 0 782.32012,550.88429 H 217.83328 A 116.10167,116.10167 0 0 0 136.6634,750.11494 h -18.44544 a 116.21789,116.21789 0 0 0 0,232.43576 h 763.7175 a 116.21789,116.21789 0 0 0 0,-232.43576 z M 865.3329,667.10217 a 83.012772,83.012772 0 1 1 -83.01278,-83.01276 83.112387,83.112387 0 0 1 83.01278,83.01276 z m -730.51239,0 a 83.112387,83.112387 0 0 1 83.01277,-83.01276 h 483.31696 a 115.83602,115.83602 0 0 0 0,166.02553 H 217.83328 A 83.112387,83.112387 0 0 1 134.82051,667.10217 Z M 35.205181,866.33283 A 83.012772,83.012772 0 1 1 118.21796,949.34559 83.112387,83.112387 0 0 1 35.205181,866.33283 Z M 881.93546,949.34559 H 199.38784 a 115.83602,115.83602 0 0 0 0,-166.02554 h 682.54762 a 83.012772,83.012772 0 0 1 0,166.02554 z"
   id="path4"
   inkscape:connector-curvature="0"
   style="fill:#000000;stroke-width:16.60255432" />
	<path
   d="m 284.24349,816.52517 h 232.43576 v 33.2051 H 284.24349 Z"
   id="path6"
   inkscape:connector-curvature="0"
   style="fill:#000000;stroke-width:16.60255432" />
	<path
   d="m 466.87159,882.93538 h 232.43576 v 33.20511 H 466.87159 Z"
   id="path8"
   inkscape:connector-curvature="0"
   style="fill:#000000;stroke-width:16.60255432" />
	<path
   d="M 765.71757,833.12772 H 898.538 v 33.20511 H 765.71757 Z"
   id="path10"
   inkscape:connector-curvature="0"
   style="fill:#000000;stroke-width:16.60255432" />
	<path
   d="m 782.32012,650.49962 a 16.602558,16.602558 0 0 1 0,33.20511 v 33.2051 a 49.807663,49.807663 0 1 0 -49.80766,-49.80766 h 33.20511 a 16.602555,16.602555 0 0 1 16.60255,-16.60255 z"
   id="path12"
   inkscape:connector-curvature="0"
   style="fill:#000000;stroke-width:16.60255432" />
	<path
   d="m 450.26904,683.70473 h 166.02555 v 33.2051 H 450.26904 Z"
   id="path14"
   inkscape:connector-curvature="0"
   style="fill:#000000;stroke-width:16.60255432" />
	<path
   d="M 367.25627,617.29451 H 500.0767 v 33.20511 H 367.25627 Z"
   id="path16"
   inkscape:connector-curvature="0"
   style="fill:#000000;stroke-width:16.60255432" />
	<path
   d="m 201.23072,667.10217 h 132.82044 v 33.20511 H 201.23072 Z"
   id="path18"
   inkscape:connector-curvature="0"
   style="fill:#000000;stroke-width:16.60255432" />
	<path
   d="M 715.90991,368.75428 C 715.90991,249.43172 672.97571,3 540.25488,3 435.87463,3 402.80234,160.80728 390.00176,227.03486 358.32409,239.45358 284.24349,273.37261 284.24349,368.75428 a 216.08225,216.08225 0 0 0 72.58637,161.32701 l 22.04819,-24.80421 A 182.91035,182.91035 0 0 1 317.4486,368.75428 c 0,-78.51349 62.95689,-102.53738 89.93604,-112.89738 l 3.10469,-1.19538 a 16.602555,16.602555 0 0 0 10.37658,-12.3523 l 0.73052,-3.8352 c 9.61288,-49.97367 38.84998,-202.268911 118.65845,-202.268911 100.66129,0 142.44992,216.596931 142.44992,332.549171 A 182.96015,182.96015 0 0 1 621.82324,504.779 l 22.1478,24.7378 a 216.19846,216.19846 0 0 0 71.93887,-160.76252 z"
   id="path20"
   inkscape:connector-curvature="0"
   style="fill:#000000;stroke-width:16.60255432" />
	<path
   d="m 543.47578,152.07434 c -34.64953,-3.18769 -60.26727,39.48087 -76.37176,130.26364 -3.66916,20.65358 -17.66512,26.92934 -42.08747,36.25997 -24.42236,9.33065 -57.76028,22.0482 -57.76028,66.26081 a 132.82044,132.82044 0 0 0 265.64087,0 c 0,-106.38918 -36.72485,-228.15231 -89.42136,-232.78442 z M 500.0767,484.47408 a 99.714941,99.714941 0 0 1 -99.61532,-99.61532 c 0,-19.60763 9.43024,-24.90384 36.426,-35.24723 23.55903,-8.98199 55.81779,-21.28448 62.92368,-61.42945 14.9423,-84.5236 34.5001,-102.93583 40.52683,-102.93583 h 0.23244 c 19.72384,1.62705 59.1217,89.18892 59.1217,199.61251 a 99.714941,99.714941 0 0 1 -99.61533,99.61532 z"
   id="path22"
   inkscape:connector-curvature="0"
   style="fill:#000000;stroke-width:16.60255432" />
	<path
   d="m 234.43583,467.87152 h 33.20511 v 33.20511 h -33.20511 z"
   id="path24"
   inkscape:connector-curvature="0"
   style="fill:#000000;stroke-width:16.60255432" />
	<path
   d="m 184.62817,285.24342 h 33.20511 v 33.20511 h -33.20511 z"
   id="path26"
   inkscape:connector-curvature="0"
   style="fill:#000000;stroke-width:16.60255432" />
	<path
   d="m 732.51246,484.47408 h 33.20511 v 33.2051 h -33.20511 z"
   id="path28"
   inkscape:connector-curvature="0"
   style="fill:#000000;stroke-width:16.60255432" />
	<path
   d="m 782.32012,285.24342 h 33.20512 v 33.20511 h -33.20512 z"
   id="path30"
   inkscape:connector-curvature="0"
   style="fill:#000000;stroke-width:16.60255432" />
	<path
   d="m 715.90991,19.602555 h 33.2051 v 33.205108 h -33.2051 z"
   id="path32"
   inkscape:connector-curvature="0"
   style="fill:#000000;stroke-width:16.60255432" />
	<path
   d="m 251.03839,102.61532 h 33.2051 v 33.20511 h -33.2051 z"
   id="path34"
   inkscape:connector-curvature="0"
   style="fill:#000000;stroke-width:16.60255432" />
</svg>