<?xml version="1.0" standalone="no"?>
<!DOCTYPE svg PUBLIC "-//W3C//DTD SVG 20010904//EN"
 "http://www.w3.org/TR/2001/REC-SVG-20010904/DTD/svg10.dtd">
<svg version="1.0" xmlns="http://www.w3.org/2000/svg"
 width="150" height="150" viewBox="0 0 256 256"
 preserveAspectRatio="xMidYMid meet">

<g transform="translate(0.000000,256.000000) scale(0.100000,-0.100000)"
fill="black" stroke="none">
<path d="M1211 2529 c-75 -500 -229 -998 -427 -1379 -68 -131 -263 -432 -275
-424 -18 11 -81 140 -108 220 -77 232 -64 472 40 692 106 227 307 409 539 487
l65 22 22 96 c11 53 24 119 28 147 l7 51 -38 -7 c-158 -28 -372 -121 -499
-216 -239 -180 -399 -428 -466 -725 -30 -135 -31 -356 -2 -493 55 -253 176
-468 362 -641 135 -127 266 -205 446 -265 183 -61 369 -78 556 -49 520 78 919
468 1020 996 18 96 16 318 -4 421 -84 428 -382 779 -785 922 -82 29 -252 66
-305 66 l-35 0 28 -73 c15 -40 37 -105 49 -144 l21 -71 53 -12 c157 -37 310
-122 435 -244 399 -386 366 -1046 -71 -1391 -95 -76 -232 -146 -344 -177 -117
-32 -354 -32 -473 0 -96 26 -241 94 -315 149 l-50 37 40 8 c22 3 87 10 144 14
l104 7 74 74 c401 402 497 978 272 1648 -35 104 -106 271 -108 254z"/>
<path d="M1483 1967 c14 -37 38 -185 46 -279 31 -409 -118 -800 -421 -1107
-51 -52 -84 -91 -73 -88 56 17 528 83 745 104 l75 8 22 45 c44 92 58 174 57
345 0 133 -4 174 -22 243 -60 223 -187 459 -358 663 -64 77 -82 93 -71 66z"/>
</g>
</svg>
